<svg width="37" height="32" viewBox="0 0 37 32" fill="none" xmlns="http://www.w3.org/2000/svg">
<path d="M36.1048 6.55776C35.5307 5.27449 34.703 4.11159 33.6679 3.13418C32.632 2.15385 31.4106 1.3748 30.0702 0.839386C28.6803 0.281991 27.1896 -0.0033152 25.6845 2.90627e-05C23.5731 2.90627e-05 21.513 0.558222 19.7227 1.61259C19.2945 1.86481 18.8876 2.14184 18.5021 2.44367C18.1167 2.14184 17.7098 1.86481 17.2815 1.61259C15.4912 0.558222 13.4312 2.90627e-05 11.3197 2.90627e-05C9.79927 2.90627e-05 8.32595 0.281193 6.93401 0.839386C5.58918 1.37691 4.37712 2.15011 3.33638 3.13418C2.2999 4.11049 1.47194 5.27366 0.899409 6.55776C0.304086 7.89329 0 9.31152 0 10.7711C0 12.148 0.291237 13.5827 0.869428 15.0423C1.3534 16.2621 2.04722 17.5273 2.93378 18.8049C4.33858 20.8268 6.27016 22.9356 8.66858 25.0732C12.6431 28.6167 16.5791 31.0645 16.7461 31.1637L17.7612 31.7922C18.2109 32.0693 18.7891 32.0693 19.2388 31.7922L20.2538 31.1637C20.4209 31.0604 24.3526 28.6167 28.3314 25.0732C30.7298 22.9356 32.6614 20.8268 34.0662 18.8049C34.9527 17.5273 35.6508 16.2621 36.1305 15.0423C36.7087 13.5827 37 12.148 37 10.7711C37.0042 9.31152 36.7001 7.89329 36.1048 6.55776ZM18.5021 28.5216C18.5021 28.5216 3.255 19.0902 3.255 10.7711C3.255 6.55776 6.86548 3.14245 11.3197 3.14245C14.4505 3.14245 17.1659 4.82943 18.5021 7.29375C19.8384 4.82943 22.5537 3.14245 25.6845 3.14245C30.1388 3.14245 33.7492 6.55776 33.7492 10.7711C33.7492 19.0902 18.5021 28.5216 18.5021 28.5216Z" fill="black" fill-opacity="0.6"/>
</svg>
