<svg width="23" height="26" viewBox="0 0 23 26" fill="none" xmlns="http://www.w3.org/2000/svg">
<path d="M14.25 6.85714V9.42857C14.25 9.6559 14.1666 9.87392 14.0181 10.0347C13.8697 10.1954 13.6683 10.2857 13.4583 10.2857H12.6667V6.85714H6.33333V10.2857H5.54167C5.3317 10.2857 5.13034 10.1954 4.98187 10.0347C4.83341 9.87392 4.75 9.6559 4.75 9.42857V6.85714H1.58333V22.2857H17.4167V6.85714H14.25ZM4.75 5.14286C4.75 3.77889 5.25045 2.47078 6.14124 1.50631C7.03204 0.541835 8.24022 0 9.5 0C10.7598 0 11.968 0.541835 12.8588 1.50631C13.7496 2.47078 14.25 3.77889 14.25 5.14286H18.2083C18.4183 5.14286 18.6197 5.23316 18.7681 5.39391C18.9166 5.55465 19 5.77267 19 6V23.1429C19 23.3702 18.9166 23.5882 18.7681 23.7489C18.6197 23.9097 18.4183 24 18.2083 24H0.791667C0.581704 24 0.38034 23.9097 0.231874 23.7489C0.0834077 23.5882 0 23.3702 0 23.1429V6C0 5.77267 0.0834077 5.55465 0.231874 5.39391C0.38034 5.23316 0.581704 5.14286 0.791667 5.14286H4.75ZM6.33333 5.14286H12.6667C12.6667 4.23354 12.333 3.36147 11.7392 2.71849C11.1453 2.07551 10.3399 1.71429 9.5 1.71429C8.66015 1.71429 7.85469 2.07551 7.26083 2.71849C6.66696 3.36147 6.33333 4.23354 6.33333 5.14286Z" fill="black"/>
<path d="M1 17H18V19H1V17Z" fill="black"/>
<rect x="9" y="26" width="14" height="14" rx="7" transform="rotate(-90 9 26)" fill="#302F2E"/>
</svg>
