<svg width="30" height="32" viewBox="0 0 30 32" fill="none" xmlns="http://www.w3.org/2000/svg">
<path d="M15 18C16.4918 18 17.9226 17.3679 18.9775 16.2426C20.0324 15.1174 20.625 13.5913 20.625 12C20.625 10.4087 20.0324 8.88258 18.9775 7.75736C17.9226 6.63214 16.4918 6 15 6C13.5082 6 12.0774 6.63214 11.0225 7.75736C9.96763 8.88258 9.375 10.4087 9.375 12C9.375 13.5913 9.96763 15.1174 11.0225 16.2426C12.0774 17.3679 13.5082 18 15 18ZM18.75 12C18.75 13.0609 18.3549 14.0783 17.6516 14.8284C16.9484 15.5786 15.9946 16 15 16C14.0054 16 13.0516 15.5786 12.3483 14.8284C11.6451 14.0783 11.25 13.0609 11.25 12C11.25 10.9391 11.6451 9.92172 12.3483 9.17157C13.0516 8.42143 14.0054 8 15 8C15.9946 8 16.9484 8.42143 17.6516 9.17157C18.3549 9.92172 18.75 10.9391 18.75 12ZM26.25 28C26.25 30 24.375 30 24.375 30H5.625C5.625 30 3.75 30 3.75 28C3.75 26 5.625 20 15 20C24.375 20 26.25 26 26.25 28ZM24.375 27.992C24.3731 27.5 24.0863 26.02 22.815 24.664C21.5925 23.36 19.2919 22 15 22C10.7063 22 8.4075 23.36 7.185 24.664C5.91375 26.02 5.62875 27.5 5.625 27.992H24.375Z" fill="black"/>
</svg>
