<svg width="17" height="17" viewBox="0 0 17 17" fill="none" xmlns="http://www.w3.org/2000/svg">
<path d="M15.1008 14.3267L10.7894 10.0152C11.4584 9.15029 11.8203 8.09277 11.8203 6.98047C11.8203 5.64902 11.3007 4.40059 10.361 3.45928C9.42138 2.51797 8.16963 2 6.83984 2C5.51006 2 4.2583 2.51963 3.31865 3.45928C2.37734 4.39893 1.85938 5.64902 1.85938 6.98047C1.85938 8.31025 2.379 9.56201 3.31865 10.5017C4.2583 11.443 5.5084 11.9609 6.83984 11.9609C7.95215 11.9609 9.00801 11.599 9.87295 10.9316L14.1844 15.2414C14.197 15.2541 14.212 15.2641 14.2285 15.2709C14.2451 15.2778 14.2628 15.2813 14.2807 15.2813C14.2985 15.2813 14.3163 15.2778 14.3328 15.2709C14.3493 15.2641 14.3643 15.2541 14.377 15.2414L15.1008 14.5192C15.1134 14.5066 15.1235 14.4916 15.1303 14.4751C15.1372 14.4585 15.1407 14.4408 15.1407 14.4229C15.1407 14.4051 15.1372 14.3874 15.1303 14.3708C15.1235 14.3543 15.1134 14.3393 15.1008 14.3267ZM9.46953 9.61016C8.76562 10.3124 7.83262 10.6992 6.83984 10.6992C5.84707 10.6992 4.91406 10.3124 4.21016 9.61016C3.50791 8.90625 3.12109 7.97324 3.12109 6.98047C3.12109 5.9877 3.50791 5.05303 4.21016 4.35078C4.91406 3.64854 5.84707 3.26172 6.83984 3.26172C7.83262 3.26172 8.76728 3.64688 9.46953 4.35078C10.1718 5.05469 10.5586 5.9877 10.5586 6.98047C10.5586 7.97324 10.1718 8.90791 9.46953 9.61016Z" fill="#705B4F"/>
</svg>
