<svg width="18" height="19" viewBox="0 0 18 19" fill="none" xmlns="http://www.w3.org/2000/svg">
<path d="M15.1875 3.71094H12.2344V2.96875C12.2325 2.5363 12.069 2.12212 11.7793 1.81633C11.4896 1.51054 11.0972 1.33789 10.6875 1.33594H7.3125C6.90281 1.33789 6.51043 1.51054 6.22074 1.81633C5.93104 2.12212 5.76747 2.5363 5.76562 2.96875V3.71094H2.8125C2.70061 3.71094 2.59331 3.75785 2.51419 3.84137C2.43507 3.92488 2.39063 4.03815 2.39062 4.15625C2.39063 4.27435 2.43507 4.38762 2.51419 4.47113C2.59331 4.55465 2.70061 4.60156 2.8125 4.60156H3.51562V15.4375C3.51562 15.7131 3.61934 15.9774 3.80394 16.1722C3.98855 16.3671 4.23893 16.4766 4.5 16.4766H13.5C13.7611 16.4766 14.0115 16.3671 14.1961 16.1722C14.3807 15.9774 14.4844 15.7131 14.4844 15.4375V4.60156H15.1875C15.2994 4.60156 15.4067 4.55465 15.4858 4.47113C15.5649 4.38762 15.6094 4.27435 15.6094 4.15625C15.6094 4.03815 15.5649 3.92488 15.4858 3.84137C15.4067 3.75785 15.2994 3.71094 15.1875 3.71094ZM6.60938 2.96875C6.60938 2.77191 6.68345 2.58313 6.81532 2.44394C6.94718 2.30476 7.12602 2.22656 7.3125 2.22656H10.6875C10.874 2.22656 11.0528 2.30476 11.1847 2.44394C11.3165 2.58313 11.3906 2.77191 11.3906 2.96875V3.71094H6.60938V2.96875ZM13.6406 15.4375C13.6406 15.4769 13.6258 15.5146 13.5994 15.5425C13.5731 15.5703 13.5373 15.5859 13.5 15.5859H4.5C4.4627 15.5859 4.42694 15.5703 4.40056 15.5425C4.37419 15.5146 4.35938 15.4769 4.35938 15.4375V4.60156H13.6406V15.4375ZM7.73438 7.71875V12.4688C7.73438 12.5869 7.68993 12.7001 7.61081 12.7836C7.53169 12.8671 7.42439 12.9141 7.3125 12.9141C7.20061 12.9141 7.09331 12.8671 7.01419 12.7836C6.93507 12.7001 6.89062 12.5869 6.89062 12.4688V7.71875C6.89062 7.60065 6.93507 7.48738 7.01419 7.40387C7.09331 7.32035 7.20061 7.27344 7.3125 7.27344C7.42439 7.27344 7.53169 7.32035 7.61081 7.40387C7.68993 7.48738 7.73438 7.60065 7.73438 7.71875ZM11.1094 7.71875V12.4688C11.1094 12.5869 11.0649 12.7001 10.9858 12.7836C10.9067 12.8671 10.7994 12.9141 10.6875 12.9141C10.5756 12.9141 10.4683 12.8671 10.3892 12.7836C10.3101 12.7001 10.2656 12.5869 10.2656 12.4688V7.71875C10.2656 7.60065 10.3101 7.48738 10.3892 7.40387C10.4683 7.32035 10.5756 7.27344 10.6875 7.27344C10.7994 7.27344 10.9067 7.32035 10.9858 7.40387C11.0649 7.48738 11.1094 7.60065 11.1094 7.71875Z" fill="#656565" fill-opacity="0.62"/>
</svg>
